<svg width="64" height="64" viewBox="0 0 64 64" fill="none" xmlns="http://www.w3.org/2000/svg">
<path d="M26.5762 41.6509C26.6056 40.9665 26.8967 40.3199 27.3887 39.8461C27.8808 39.3722 28.5357 39.1077 29.217 39.1077C29.8982 39.1077 30.5532 39.3722 31.0452 39.8461C31.5372 40.3199 31.8283 40.9665 31.8577 41.6509C32.0121 48.1347 34.066 53.259 36.5678 53.259C39.1699 53.259 41.2855 47.7223 41.2855 40.8872C41.2869 39.6838 41.2192 38.4813 41.0826 37.2857C40.9955 36.4645 41.0789 35.634 41.3274 34.8468C41.576 34.0597 41.9843 33.333 42.5265 32.7127C44.6328 30.1402 45.7611 26.8986 45.7099 23.5667C45.7099 16.5866 41.1157 10.9353 35.4404 10.9353C34.2294 10.9365 33.0323 11.1948 31.9274 11.6933C31.1302 12.0502 30.2672 12.2346 29.3946 12.2346C28.5219 12.2346 27.659 12.0502 26.8617 11.6933C25.7568 11.1948 24.5597 10.9365 23.3487 10.9353C17.6812 10.9353 13.0792 16.5866 13.0792 23.5667C13.0353 26.7839 14.0848 29.9197 16.0541 32.4555C16.568 33.0726 16.9519 33.7884 17.1823 34.5593C17.4127 35.3302 17.4848 36.1402 17.3942 36.94C17.2287 38.2491 17.1466 39.5676 17.1484 40.8872C17.1484 47.7223 19.2641 53.259 21.8662 53.259C24.3679 53.259 26.4218 48.1347 26.5762 41.6509Z" stroke="#9333ea" stroke-width="2" stroke-linecap="round" stroke-linejoin="round"/>
<path d="M4 55.2057C6.99674 52.0556 12.0681 49.3695 17.8051 47.1399C20.5652 46.0645 23.4821 45.0926 26.3989 44.2343C28.2494 43.6759 30.0894 43.1693 31.8981 42.7039C35.2645 41.8354 38.4741 41.1115 41.2864 40.5428C44.8201 39.7983 47.716 39.2916 49.4306 39.0125C49.8862 38.9389 50.3011 38.7052 50.6016 38.3531C50.9021 38.001 51.0688 37.5532 51.072 37.0892V37.0064C51.0528 36.5453 50.8724 36.1059 50.5625 35.7654C50.2527 35.4249 49.8334 35.2053 49.3783 35.1452L41.6524 34.0594" stroke="#9333ea" stroke-width="2" stroke-linecap="round" stroke-linejoin="round"/>
<path d="M14.6373 30.2439L8.32266 29.3546C7.69571 29.2721 7.11988 28.9634 6.70218 28.4861C6.28308 28.0179 6.05204 27.4098 6.05397 26.7799C6.06023 26.0887 6.33689 25.4278 6.82408 24.9401C7.31126 24.4524 7.9698 24.1773 8.6572 24.1742C10.1836 24.1638 11.6577 24.1328 13.09 24.0914C28.0612 23.6675 38.2545 21.8786 45.1651 19.5004C54.875 16.1633 58.1034 11.6738 59 8.20569" stroke="#9333ea" stroke-width="2" stroke-linecap="round" stroke-linejoin="round"/>
</svg>
