<svg width="112" height="112" viewBox="0 0 112 112" fill="none" xmlns="http://www.w3.org/2000/svg">
<path fill-rule="evenodd" clip-rule="evenodd" d="M98.073 31.4672C82.1143 22.2279 67.7421 13.9219 54.1166 6.08258C50.4769 4.02942 46.3705 4.96268 44.224 8.32241C42.0775 11.6821 43.0108 15.6951 46.4638 18.1216C46.8372 18.4016 46.9305 18.4949 46.9305 18.8682C46.9305 22.9745 46.8372 27.8275 46.9305 32.5871V32.8671H46.5572H41.051H39.2778C36.3847 32.8671 34.3315 33.987 33.0249 36.2268C32.8383 36.5068 32.745 36.6001 32.185 36.6001H29.3852H29.1986H26.2122C25.4656 36.6001 24.9989 36.7867 24.6256 37.16C24.2523 37.5334 24.0657 38.0933 24.0657 38.7466V44.0661C24.0657 44.8128 24.2523 45.2794 24.6256 45.6527C25.1856 46.1193 25.8389 46.2126 26.3988 46.2126H29.1053H29.3852H32.185C32.6516 46.2126 32.8383 46.306 33.1183 46.6793C34.4248 48.8258 36.3847 49.9457 38.9045 49.9457H65.2223C68.5821 49.9457 71.2885 47.7059 71.9418 44.3461C72.1284 43.2262 72.1284 42.1996 72.1284 41.1731V40.3331C72.1284 35.8535 69.3287 33.0537 64.7557 32.9604H57.4763H57.1963V25.961V24.3744L63.5425 28.0141C69.6086 31.5605 76.5147 35.4802 83.2342 39.3065C83.7008 39.5865 83.8875 39.8665 83.8875 40.5198V49.1991V51.4389V56.3438H87.0605H90.7936H93.78V49.5724V45.2794V44.9994H94.06C97.6997 45.1861 100.686 43.3196 101.619 40.0532C102.739 36.6934 101.339 33.3337 98.073 31.4672ZM87.0605 50.1323V51.4389V54H90.7936V49.1057V44.3461C90.8869 43.7862 90.7936 43.5995 90.3269 43.4129C89.3004 42.9462 88.3671 42.293 87.3405 41.733L87.0605 41.5464V50.1323ZM53.7433 32.8671V32.6804V26.0543V25.961V22.8812V22.6946C53.7433 22.4146 53.7433 22.4146 53.6499 22.3213C52.53 21.7613 51.4101 21.108 50.2902 20.4548L49.9169 20.2681V29.694C49.9169 31.2805 49.9169 32.4004 50.1969 32.6804C50.4164 32.8999 51.1523 32.89 52.2247 32.8754C52.52 32.8714 52.8408 32.8671 53.1833 32.8671H53.2766H53.7433ZM68.6754 42.8529V42.013C68.6754 41.8638 68.6658 41.7051 68.6559 41.54C68.6348 41.1884 68.6119 40.8074 68.6754 40.4264C68.7687 39.1199 68.4887 38 67.7421 37.2534C66.9955 36.4134 65.7823 35.9468 64.3824 36.0401C63.0758 36.1335 61.6759 36.1335 59.9961 36.1335H59.2495H58.1296H55.7031H51.8767H47.3971H38.6245C36.6647 36.1335 35.3581 37.3467 35.1714 39.3065C35.0781 40.2398 35.0781 41.1731 35.0781 42.1063V42.293C35.0781 45.466 36.2913 46.586 39.3711 46.586H50.5702H54.6765H57.103H57.6629H61.3026H64.9423C67.3688 46.586 68.6754 45.2794 68.6754 42.8529ZM50.5702 8.22908H50.3835C49.6369 8.22908 49.077 8.3224 48.517 8.60237C47.4904 9.16233 46.8372 10.0023 46.5572 10.9355C46.0905 12.8954 46.8372 14.6686 48.6103 15.6951C51.2235 17.2817 53.9299 18.7749 56.6363 20.3614L69.422 27.7341C73.2941 29.9735 77.143 32.1895 80.9918 34.4055C84.8423 36.6224 88.6929 38.8394 92.5667 41.0797C93.78 41.733 94.9932 41.9197 96.1131 41.6397C97.0464 41.3597 97.793 40.7064 98.353 39.7732C99.4729 37.72 98.7263 35.4802 96.5798 34.2669C90.0003 30.4406 83.3976 26.6376 76.7948 22.8346L76.7936 22.8339C70.1912 19.0311 63.5888 15.2283 57.0097 11.4021L52.6234 8.88235C51.9701 8.60238 51.3168 8.22908 50.5702 8.22908ZM29.6652 42.8529H29.7585C30.2252 42.8529 30.7851 42.8529 31.2518 43.0396C31.8117 43.1329 31.905 43.0396 31.905 43.0396C31.905 43.0396 31.9984 42.8529 31.9984 42.1996V42.013C31.9984 41.1731 31.9984 40.2398 31.8117 40.1465C31.6251 39.9598 30.6918 39.9598 29.7585 39.9598H29.4786H29.3852H28.8253H27.3321C27.2387 40.0531 27.2387 40.3331 27.2387 40.9864V41.2664C27.2387 41.9197 27.3321 42.6663 27.4254 42.7596C27.6121 42.8529 28.452 42.8529 29.1986 42.8529H29.6652Z" fill="#9333ea"/>
<path fill-rule="evenodd" clip-rule="evenodd" d="M55 64.131V60.9578L49.6368 60.9578H41.8908H39.651H17.8128C14.0798 60.9578 11 64.2242 11 67.9573C11 71.6903 13.8931 74.6767 17.6261 74.8634C18.5594 74.9567 19.586 74.9567 20.6126 74.8634H21.5458C22.5724 74.8634 23.599 74.8634 23.7856 75.05C23.9723 75.2367 23.9723 76.1699 23.9723 77.2898V77.7565H23.599C22.2924 77.7565 21.3591 78.0364 20.7059 78.783C20.0526 79.4363 19.6793 80.4629 19.6793 81.7695V103.701C19.6793 106.221 20.9858 107.621 23.5056 107.714H25.1855H26.4921H27.7986H32.0916H42.0775C44.6906 107.714 46.2771 106.314 46.2771 103.888V81.4895C46.2771 80.3696 45.9038 79.343 45.1572 78.6897C44.5973 78.1298 43.7573 77.8498 42.9174 77.9431C42.1708 78.0364 42.0775 77.8498 41.9841 77.8498C41.7975 77.6631 41.8908 77.0098 41.8908 76.7299C41.9841 76.1699 41.9841 75.7033 41.8908 75.1433V75.05H42.0775H48.7969H51.5H52.5H55V73.4996V71.8769V64.131ZM28.8252 64.1309C25.2788 64.0376 21.7325 64.0376 18.1861 64.1309C16.7862 64.1309 15.573 64.8775 14.733 66.1841C14.0797 67.304 14.1731 68.7039 14.8264 69.9171C15.573 71.2237 16.8795 71.8769 18.746 71.8769H48.8902H52.5V64.131L49.7302 64.1309H39.5577H34.0515H29.2918H28.8252ZM43.384 90.0755V89.7021C43.384 89.1389 43.379 88.5656 43.3736 87.9869C43.3732 87.9483 43.3729 87.9094 43.3725 87.8709C43.355 85.9929 43.3369 84.0617 43.4774 82.2361C43.4774 81.5828 43.384 81.3028 43.2907 81.2095C43.1974 81.1162 42.8241 81.0229 42.2641 81.0229C36.3846 81.1162 30.3184 81.1162 24.3456 81.0229H24.2522C23.6923 81.0229 23.4123 81.0229 23.2257 81.2095C23.1323 81.3028 23.039 81.4895 23.039 82.1428V103.328C23.039 103.794 23.039 104.168 23.2257 104.261C23.319 104.354 23.599 104.448 24.1589 104.448H36.8512H41.9841C42.6841 104.448 43.034 104.448 43.209 104.273C43.384 104.098 43.384 103.748 43.384 103.048V96.6083V92.7819V90.0755ZM29.5718 74.8634C28.5452 74.8634 27.612 74.8634 27.4253 75.05C27.2387 75.2367 27.332 76.2632 27.332 77.1965V77.5698H27.612H31.4383H31.905H33.0249H36.9446C37.7845 77.5698 38.7177 77.5698 38.9044 77.4765C39.091 77.3832 39.091 76.4499 39.091 75.7033V75.61C39.091 75.05 38.9977 74.9567 38.9977 74.9567C38.9977 74.9567 38.9044 74.8634 38.5311 74.8634H38.4378H32.1849H32.0916H29.5718Z" fill="#9333ea"/>
<path d="M93.6865 53.9587C82.0208 53.9587 70.3551 53.9587 58.6894 53.9587C54.6764 53.9587 52.4365 56.1986 52.4365 60.2116C52.4365 65.0645 52.4365 69.8241 52.4365 74.677V80.7432V86.6227C52.4365 91.4757 52.4365 96.3286 52.4365 101.182C52.4365 105.195 54.6763 107.434 58.7827 107.434C64.6622 107.434 70.5417 107.434 76.4212 107.434C82.1141 107.434 87.9003 107.434 93.5932 107.434C97.6062 107.434 99.9393 105.101 99.9393 101.088C99.9393 87.3693 99.9393 73.7438 99.9393 60.0249C99.9393 56.3852 97.5129 53.9587 93.6865 53.9587ZM96.6729 86.6227C96.6729 91.4757 96.6729 96.3286 96.6729 101.182C96.6729 103.701 95.9263 104.448 93.4998 104.448C81.9275 104.448 70.2617 104.448 58.6894 104.448C56.5429 104.448 55.6096 103.515 55.5163 101.462C55.5163 87.556 55.5163 73.7438 55.5163 60.3049C55.5163 58.2517 56.4495 57.3185 58.5027 57.3185C64.1956 57.3185 70.0751 57.3185 76.0479 57.3185C81.8341 57.3185 87.6203 57.3185 93.5932 57.3185C95.7397 57.3185 96.5796 58.1584 96.5796 60.3982C96.5796 65.2511 96.5796 70.1041 96.5796 74.8637V80.8365L96.6729 86.6227Z" fill="#9333ea"/>
<path d="M33.2118 93.7156C31.1586 93.7156 29.4788 95.3021 29.4788 97.3553C29.4788 98.3819 29.8521 99.4084 30.5987 100.155C31.2519 100.808 32.1852 101.275 33.2118 101.275H33.3051C35.3583 101.275 36.9448 99.5951 36.9448 97.5419C36.8515 95.3954 35.265 93.7156 33.2118 93.7156Z" fill="#9333ea"/>
<path d="M33.025 91.569C35.1715 91.569 36.758 90.0758 36.8513 88.0226C36.8513 86.9961 36.478 85.9695 35.8247 85.3162C35.1715 84.5696 34.1449 84.1963 33.1183 84.1963C31.0651 84.1963 29.4786 85.7828 29.3853 87.836C29.4786 89.8892 30.9718 91.569 33.025 91.569Z" fill="#9333ea"/>
<path d="M93.3131 81.9562C92.0065 81.9562 90.6999 81.9562 89.2067 81.9562H88.9267C90.6066 79.0631 90.5133 75.61 88.5534 72.9036C86.5003 70.0105 82.7672 68.7039 79.3142 69.7305C77.261 70.3838 75.2079 70.3838 73.0614 69.7305C70.9149 69.0772 68.6751 69.2639 66.7152 70.3838C64.7554 71.5037 63.2622 73.2769 62.6089 75.5167C61.9556 77.7565 62.2356 79.903 63.4488 81.9562H62.0489C61.0223 81.9562 60.0891 81.9562 59.1558 81.9562H58.9692C58.3159 81.9562 56.916 81.9562 56.916 83.5427C56.916 84.0093 57.0093 84.3826 57.2893 84.6626C57.756 85.1292 58.5026 85.1292 59.1558 85.1292C60.3691 85.1292 61.5823 85.1292 62.8889 85.1292H64.1021C64.0088 85.4092 63.9155 85.6892 63.8221 85.9692C62.4222 90.6355 63.1688 94.7418 66.0619 98.1948C66.5286 98.7548 67.3685 99.5947 68.4884 99.5947C68.8617 99.5947 69.3283 99.5014 69.795 99.3148C71.1949 98.6615 71.6615 97.3549 71.1949 95.6751C70.6349 93.4352 71.1015 91.2887 72.7814 89.2356C73.6213 88.209 74.7412 87.649 76.0478 87.649C77.3543 87.649 78.5676 88.209 79.3142 89.2356C81.0874 91.2887 81.554 93.5286 80.9941 95.955C80.6208 97.5416 81.0874 98.7548 82.4873 99.4081C84.3538 100.248 85.567 98.9414 85.9403 98.5681C86.9669 97.4482 87.8068 96.1417 88.2734 94.6485C89.3 91.5687 89.2067 88.489 87.9935 85.3159H88.9267C90.3266 85.3159 91.6332 85.3159 93.0331 85.3159C93.593 85.3159 95.0862 85.3159 95.0862 83.7294C95.0862 83.2627 94.9929 82.8894 94.7129 82.6095C94.5263 81.9562 93.873 81.9562 93.3131 81.9562ZM85.6603 81.0229C85.287 81.3962 85.1004 81.6762 84.8204 81.9562C83.3272 83.0761 83.8872 84.2893 84.4471 85.0359C86.5936 88.0223 86.5003 92.502 84.4471 95.4884C85.1004 90.8221 82.2073 85.8759 78.1943 84.7559C77.4477 84.5693 76.7944 84.476 76.0478 84.476C74.0879 84.476 72.4081 85.2226 70.9149 86.8091C68.5817 89.2356 67.6485 92.222 68.0218 95.5817C66.9952 94.0885 66.4352 92.3153 66.4352 90.2622C66.4352 88.7689 66.6219 86.9958 67.6485 85.6892C69.235 83.7294 68.2084 82.5161 67.1818 81.4895C65.5953 79.9963 65.222 78.2231 65.8753 76.17C66.5286 74.0235 68.5817 72.6236 70.7282 72.6236C71.1949 72.6236 71.6615 72.7169 72.2214 72.8102C75.0212 73.6502 77.7277 73.6502 80.5274 72.8102C82.5806 72.157 84.9137 72.9969 86.127 74.9567C87.4335 76.9166 87.2469 79.2497 85.6603 81.0229Z" fill="#9333ea"/>
<path d="M83.4208 62.918H85.4739C86.7805 62.918 88.0871 62.918 89.4869 62.918C90.8868 62.918 90.8868 62.918 90.8868 64.2245C90.8868 65.5311 90.8868 66.8376 90.8868 68.1442V70.4773C90.8868 71.1306 91.0735 71.6906 91.4468 71.9705C91.6334 72.1572 92.0067 72.4372 92.5667 72.4372C93.1266 72.4372 93.4999 72.1572 93.6866 71.9705C94.0599 71.5972 94.1532 71.1306 94.1532 70.4773C94.1532 69.7307 94.1532 68.9841 94.1532 68.2375V66.091C94.1532 65.3444 94.1532 64.5978 94.1532 63.8512C94.0599 61.5181 92.66 60.0249 90.4202 59.8382C88.5537 59.7449 86.7805 59.7449 85.0073 59.7449H83.4208C82.9541 59.7449 82.3009 59.8382 81.9276 60.2115C81.6476 60.4915 81.5543 60.8648 81.5543 61.4247C81.4609 62.918 82.8608 62.918 83.4208 62.918Z" fill="#9333ea"/>
<path d="M73.2483 62.918C73.7149 62.918 74.0882 62.918 74.5548 62.918H75.5814H75.9547H76.328C76.9813 62.918 77.5413 62.918 78.1945 62.918C79.1278 62.918 79.7811 62.2647 79.7811 61.2381C79.7811 60.3982 79.1278 59.7449 78.2879 59.7449C77.4479 59.7449 76.608 59.7449 75.7681 59.7449C74.9281 59.7449 73.9949 59.7449 73.155 59.7449C72.595 59.7449 72.2217 59.9315 71.8484 60.2115C71.5684 60.4915 71.4751 60.8648 71.4751 61.3314C71.4751 62.358 72.2217 62.918 73.2483 62.918Z" fill="#9333ea"/>
<path d="M80.2477 74.3037C79.8744 74.1171 79.4078 74.0237 78.8478 74.2104C77.0747 74.677 75.3015 74.677 73.6216 74.2104C72.6884 73.9304 71.8484 74.3037 71.5684 75.1436C71.4751 75.5169 71.1951 76.6368 72.7817 77.1968C73.9949 77.5701 75.1148 77.7568 76.3281 77.8501C77.3546 77.8501 78.4745 77.6634 79.6878 77.2901C81.181 76.8235 81.0877 75.7036 80.9943 75.3303C80.8077 74.8637 80.621 74.4904 80.2477 74.3037Z" fill="#9333ea"/>
</svg>
